<?xml version="1.0" standalone="no"?>
<!DOCTYPE svg PUBLIC "-//W3C//DTD SVG 20010904//EN"
 "http://www.w3.org/TR/2001/REC-SVG-20010904/DTD/svg10.dtd">
<svg version="1.0" xmlns="http://www.w3.org/2000/svg"
 width="75.000000pt" height="101.000000pt" viewBox="0 0 75.000000 101.000000"
 preserveAspectRatio="xMidYMid meet">

<g transform="translate(0.000000,101.000000) scale(0.100000,-0.100000)"
fill="#000000" stroke="none">
<path d="M338 1003 c23 -2 59 -2 80 0 20 2 1 4 -43 4 -44 0 -61 -2 -37 -4z"/>
<path d="M221 979 c-133 -60 -224 -204 -220 -349 1 -36 3 -31 10 28 5 42 20
100 35 133 34 75 122 159 196 188 29 11 46 20 38 20 -8 0 -35 -9 -59 -20z"/>
<path d="M503 980 c108 -42 188 -130 221 -240 54 -180 -44 -374 -222 -440 -83
-31 -205 -26 -284 13 -94 46 -158 122 -195 232 -13 39 -13 39 -8 5 15 -94 94
-193 193 -242 56 -28 80 -34 152 -36 96 -4 167 16 239 68 86 63 151 192 151
300 0 103 -59 226 -139 289 -42 34 -117 71 -141 70 -8 0 7 -8 33 -19z"/>
<path d="M183 775 c-98 -42 -98 -204 -1 -266 49 -30 133 -22 166 16 l24 29 -3
-105 c-3 -64 0 -105 6 -106 6 -1 9 14 7 33 -2 20 2 60 8 89 l11 53 27 -14 c64
-33 153 -6 192 58 27 44 27 122 0 166 -44 72 -160 82 -226 21 -20 -18 -22 -19
-35 -3 -34 41 -117 55 -176 29z m168 -55 c16 -9 19 -22 19 -71 0 -55 -1 -59
-16 -45 -33 34 -74 12 -74 -38 0 -40 -13 -59 -36 -54 -64 12 -47 164 24 202
32 18 57 20 83 6z m129 -5 c39 -20 63 -69 64 -127 2 -85 -64 -109 -72 -27 -4
41 -18 59 -44 59 -18 0 -20 4 -13 48 10 70 15 73 65 47z m-74 -127 c-3 -13 -6
-32 -6 -43 -1 -19 -1 -19 -11 -2 -12 21 -4 67 12 67 7 0 9 -9 5 -22z"/>
</g>
</svg>
